<?xml version="1.0" standalone="no"?>
<!DOCTYPE svg PUBLIC "-//W3C//DTD SVG 20010904//EN"
 "http://www.w3.org/TR/2001/REC-SVG-20010904/DTD/svg10.dtd">
<svg version="1.0" xmlns="http://www.w3.org/2000/svg"
 width="512.000000pt" height="512.000000pt" viewBox="0 0 512.000000 512.000000"
 preserveAspectRatio="xMidYMid meet">
<metadata>
Created by potrace 1.14, written by Peter Selinger 2001-2017
</metadata>
<g transform="translate(0.000000,512.000000) scale(0.100000,-0.100000)"
fill="#000000" stroke="none">
<path d="M0 2560 l0 -2560 79 0 78 0 16 102 c9 57 21 142 28 191 7 48 14 85
17 83 2 -3 4 -89 3 -191 l-2 -185 2451 0 2450 0 0 470 -1 470 -32 14 c-18 8
-26 15 -19 15 7 1 22 -4 33 -9 19 -11 19 16 19 2075 l0 2085 -2560 0 -2560 0
0 -2560z m2891 1619 c11 -5 17 -14 14 -18 -3 -5 2 -11 9 -14 20 -8 144 -18
129 -11 -19 9 -4 32 18 27 10 -3 19 -9 19 -14 0 -5 8 -9 18 -10 13 0 11 -3 -6
-10 -13 -5 -20 -13 -17 -19 10 -16 29 -12 47 10 32 37 63 35 133 -6 41 -24 68
-48 71 -62 7 -26 52 -42 64 -22 5 8 13 9 21 4 8 -5 22 -10 32 -11 24 -4 54
-40 62 -76 4 -15 13 -34 21 -41 13 -14 16 -42 11 -123 -1 -17 -5 -29 -9 -26
-15 9 -7 -13 24 -67 18 -30 31 -65 29 -78 -1 -13 2 -29 8 -36 8 -10 8 -22 1
-40 -12 -34 -13 -57 -1 -38 11 17 36 -11 28 -32 -3 -8 1 -17 8 -20 11 -4 12
-11 3 -37 -7 -20 -7 -33 -1 -38 6 -3 13 -16 17 -28 4 -13 12 -23 18 -23 6 0 8
-10 5 -22 -4 -13 0 -26 9 -32 10 -8 16 -37 19 -96 5 -86 13 -225 18 -293 1
-20 0 -37 -3 -37 -3 0 -6 -36 -7 -79 0 -44 -4 -84 -7 -90 -4 -6 -3 -11 2 -11
12 0 4 -37 -14 -65 -6 -11 -15 -35 -19 -52 -4 -18 -10 -33 -14 -33 -4 0 -6
-19 -5 -42 1 -24 0 -35 -3 -25 -5 18 -28 19 -28 1 0 -23 -52 -114 -67 -120
-10 -3 -18 -11 -18 -18 0 -7 -9 -25 -21 -40 -11 -14 -18 -30 -14 -36 3 -5 0
-7 -8 -4 -8 3 -18 0 -23 -7 -5 -8 -3 -10 5 -4 10 5 9 2 0 -13 -7 -12 -16 -19
-20 -17 -3 3 -7 -12 -7 -33 -1 -56 -10 -76 -43 -91 -23 -10 -33 -10 -44 -1 -8
7 -13 16 -10 19 2 4 -2 8 -10 8 -8 0 -15 -9 -15 -19 0 -10 5 -17 12 -16 7 2
13 -7 14 -18 0 -12 4 -26 8 -32 3 -6 -1 -17 -9 -25 -19 -20 -20 -33 0 -17 8 6
26 13 41 15 14 1 30 9 35 16 4 7 11 11 14 7 3 -3 -3 -21 -14 -39 -12 -19 -21
-30 -21 -25 0 5 -8 0 -17 -11 -18 -19 -55 -34 -101 -39 -22 -3 -23 -2 -9 20
10 15 12 27 6 37 -8 12 -11 11 -20 -4 -6 -9 -14 -15 -19 -12 -10 6 -85 -29
-95 -45 -4 -6 -11 -8 -16 -5 -5 4 -21 -3 -35 -14 -15 -12 -30 -21 -34 -21 -4
0 -5 26 -4 58 2 31 0 47 -2 35 -11 -50 -24 -19 -22 52 1 41 -2 78 -5 82 -4 3
-7 -5 -7 -18 -1 -21 -2 -22 -13 -8 -7 9 -20 15 -29 13 -10 -1 -17 1 -17 4 1 4
1 16 0 27 -1 14 -4 16 -9 7 -9 -13 -42 -6 -42 9 0 14 -30 11 -31 -3 0 -7 -2
-26 -2 -43 -2 -30 -2 -30 -77 -37 -41 -4 -98 -10 -125 -12 -28 -3 -76 1 -108
8 -32 8 -66 12 -75 10 -75 -14 -84 -14 -78 1 3 8 1 15 -4 15 -6 0 -11 -8 -11
-17 -1 -15 -2 -16 -6 -2 -2 9 -14 20 -26 26 -26 11 -60 6 -52 -8 12 -18 -13
-9 -38 15 -18 17 -23 26 -14 30 7 4 2 4 -10 2 -16 -3 -23 1 -23 11 0 11 -13
14 -62 12 -41 -2 -63 1 -66 9 -2 7 6 12 17 12 12 0 21 4 21 9 0 5 14 12 30 16
31 7 40 20 18 27 -9 3 -9 6 1 12 8 5 14 1 17 -12 5 -17 9 -18 40 -7 18 6 37
14 40 18 4 4 17 7 29 7 33 0 49 24 35 49 -10 20 -8 21 29 21 22 0 43 5 46 10
3 6 -5 10 -19 10 -50 0 -130 44 -159 88 -15 23 -27 46 -27 52 0 6 -5 8 -10 5
-6 -4 -8 -11 -4 -16 8 -13 -49 -7 -58 6 -4 6 -8 2 -8 -9 0 -12 -5 -16 -15 -12
-13 5 -15 -1 -12 -32 6 -49 16 -72 33 -72 13 0 18 -12 15 -32 0 -4 6 -5 14 -2
8 4 15 1 15 -5 0 -7 -7 -14 -15 -17 -8 -4 -15 -14 -16 -23 0 -10 -2 -11 -6 -3
-2 6 -10 9 -16 5 -7 -4 -6 1 2 10 16 20 8 22 -22 5 -12 -6 -46 -10 -76 -9 -29
1 -51 -1 -48 -6 3 -4 -1 -17 -9 -28 -15 -20 -29 -13 -36 16 -2 13 -9 10 -33
-14 -18 -18 -23 -28 -13 -24 15 5 16 2 11 -26 -3 -18 -14 -45 -23 -62 -18 -33
-34 -84 -31 -100 0 -5 -5 -2 -12 7 -8 10 -17 15 -20 11 -4 -3 -7 4 -7 16 0 12
-4 20 -9 16 -14 -8 -40 51 -34 76 4 15 3 20 -5 15 -7 -4 -12 -2 -12 4 0 6 -5
8 -12 4 -8 -5 -9 -2 -5 10 4 10 7 24 7 32 0 9 6 11 17 7 14 -6 13 -1 -5 22
-14 17 -19 31 -13 33 15 5 14 29 -1 38 -7 5 -8 3 -3 -6 5 -9 4 -11 -4 -6 -9 6
-9 11 0 22 6 8 7 14 2 14 -6 0 -11 15 -11 33 -2 114 -1 174 4 190 3 10 0 17
-8 17 -10 0 -9 3 2 10 11 6 12 12 4 20 -7 7 -8 28 -4 55 4 25 4 45 0 45 -4 0
-7 12 -7 28 0 15 -4 47 -9 72 -10 46 3 140 18 140 4 0 8 8 8 18 1 13 6 11 24
-12 14 -16 21 -36 19 -47 -4 -15 0 -19 21 -19 14 0 26 -5 26 -11 0 -5 4 -8 8
-5 5 3 25 -6 45 -19 27 -19 49 -25 89 -24 l53 0 -37 15 c-60 25 -59 65 2 63
14 -1 45 3 70 9 25 7 68 12 95 13 28 1 43 3 34 6 -13 3 -14 9 -5 38 10 33 10
34 38 17 30 -17 36 -37 16 -45 -7 -2 -1 -8 15 -12 30 -8 33 -15 15 -33 -9 -9
-8 -12 5 -12 26 0 74 48 92 92 18 45 17 126 -1 136 -6 4 -13 16 -15 27 -2 10
-15 25 -29 31 -107 51 -115 57 -89 66 20 7 -1 48 -29 61 -15 6 -32 17 -39 23
-16 15 -157 26 -188 14 -20 -8 -25 -6 -25 6 0 8 -4 13 -9 10 -5 -4 -21 -2 -36
4 -20 8 -25 15 -20 29 4 13 0 23 -11 29 -18 10 -18 11 24 57 7 8 10 15 7 15
-4 0 8 21 27 48 43 61 60 109 47 133 -12 24 0 99 17 106 8 3 14 9 14 15 0 5
-4 7 -9 4 -4 -3 -9 17 -10 44 0 27 4 52 9 55 6 3 10 18 10 33 0 15 14 45 30
66 17 22 30 43 30 48 0 5 18 28 40 50 22 23 40 46 40 50 0 4 7 8 15 8 8 0 15
3 15 8 0 4 18 6 40 4 22 -2 48 -1 57 3 10 3 58 7 108 8 49 1 96 6 103 10 6 5
18 5 25 0 6 -4 17 -8 22 -8 6 0 9 -7 8 -16 -2 -11 9 -15 47 -17 38 -1 50 2 50
12 0 18 18 23 103 25 58 1 72 5 93 26 28 29 29 29 55 14z m495 -94 c18 -14 18
-14 -8 -15 -27 0 -43 12 -31 24 9 9 17 8 39 -9z m1409 -44 c31 -14 54 -35 84
-80 31 -45 52 -65 86 -80 25 -11 48 -27 51 -36 7 -18 -19 -51 -58 -71 -16 -8
-28 -21 -28 -30 0 -29 -31 -74 -63 -91 -29 -16 -66 -18 -367 -18 -184 0 -341
-4 -347 -8 -7 -5 -13 -26 -13 -48 0 -71 -74 -120 -143 -93 -23 9 -14 104 12
125 27 22 27 41 0 57 -13 9 -18 9 -14 2 4 -7 -1 -7 -14 2 -12 7 -21 18 -21 24
0 6 -3 25 -6 42 -5 25 -2 31 15 37 12 3 19 10 17 14 -3 4 4 7 15 7 16 -1 25
11 41 51 21 59 57 93 97 93 31 0 138 29 239 65 93 33 274 66 330 60 24 -3 63
-13 87 -24z m-4593 -368 c10 -9 18 -22 18 -29 0 -15 -47 -41 -70 -39 -8 1 -23
3 -32 3 -18 2 -48 28 -48 42 0 38 97 55 132 23z m3409 -126 c-10 -9 -11 -8 -5
6 3 10 9 15 12 12 3 -3 0 -11 -7 -18z m-1519 -368 c9 0 19 -7 22 -15 3 -8 13
-14 22 -14 10 0 25 -7 35 -16 9 -8 23 -17 31 -18 50 -10 106 -55 93 -75 -3 -6
-2 -11 3 -11 6 0 12 -7 15 -15 7 -17 -22 -8 -86 29 -39 22 -117 43 -117 32 0
-3 16 -12 35 -20 37 -16 143 -94 110 -81 -11 4 -49 18 -84 32 -51 19 -79 24
-133 21 -64 -3 -73 0 -69 25 2 13 -62 -3 -84 -22 -18 -15 -19 -15 -7 1 7 9 9
18 3 20 -9 3 -14 22 -12 48 0 9 16 24 34 35 17 10 34 21 37 24 18 21 50 30 90
26 25 -3 53 -5 62 -6z m48 -200 c0 -5 -7 -9 -15 -9 -8 0 -15 7 -15 15 0 9 6
12 15 9 8 -4 15 -10 15 -15z m-126 -21 c3 -17 13 -39 22 -49 21 -23 3 -32 -33
-17 -28 13 -52 36 -53 51 0 10 38 47 49 47 5 0 11 -14 15 -32z m1964 -4 c22
-15 23 -19 18 -138 -4 -82 -10 -132 -21 -152 -8 -16 -15 -40 -15 -54 0 -14 -9
-54 -20 -89 -16 -55 -17 -65 -4 -78 20 -20 18 -26 -15 -44 -15 -9 -31 -29 -35
-44 -11 -43 -65 -133 -97 -159 -23 -19 -35 -23 -52 -17 -20 8 -22 15 -21 80 1
39 7 77 13 85 6 7 14 53 17 101 3 47 9 96 13 108 5 12 6 28 4 35 -3 7 1 19 7
27 7 8 10 21 7 29 -3 8 3 22 13 31 18 16 18 20 4 46 -8 16 -10 29 -5 29 6 0
15 19 21 43 20 74 97 176 135 177 6 0 21 -7 33 -16z m-2358 -74 c34 0 38 -3
48 -38 6 -20 9 -47 6 -60 -6 -22 -9 -22 -156 -22 -84 0 -158 5 -169 10 -24 13
-24 41 0 71 29 36 77 49 160 44 41 -3 91 -5 111 -5z m1942 -642 c-13 -13 -26
8 -17 30 6 16 7 16 17 -1 7 -13 7 -22 0 -29z m-62 -132 c0 -2 -7 -7 -16 -10
-8 -3 -12 -2 -9 4 6 10 25 14 25 6z m931 -16 c26 -14 25 -56 -2 -71 -26 -13
-157 -19 -181 -7 -21 10 -23 39 -6 56 7 7 30 12 53 13 22 0 49 4 60 9 28 12
53 12 76 0z m-984 -61 c-13 -17 -15 -18 -21 -4 -3 9 -1 26 5 37 10 19 12 20
21 5 6 -12 4 -24 -5 -38z m-1388 -51 c6 -18 11 -42 11 -53 0 -50 5 -62 42 -99
31 -31 43 -37 64 -32 15 4 33 1 47 -9 12 -8 33 -15 47 -16 14 0 20 -3 13 -6
-10 -3 -10 -7 0 -18 7 -7 15 -11 20 -8 4 2 7 -1 7 -7 0 -6 4 -8 10 -5 21 13 4
-48 -18 -66 -19 -15 -21 -21 -12 -36 11 -17 11 -17 6 1 -5 13 -2 17 8 13 9 -4
16 3 20 19 7 27 53 45 65 25 10 -15 30 7 36 40 3 12 10 26 17 31 7 4 10 8 7 8
-4 0 -31 5 -60 11 -30 6 -71 12 -93 15 -21 2 -52 11 -69 19 -22 11 -34 12 -43
4 -16 -13 -30 -6 -37 20 -5 22 22 39 34 20 11 -19 28 -1 22 24 -3 12 -9 27
-12 32 -14 22 5 82 27 87 10 3 31 3 47 2 64 -7 239 -13 431 -16 145 -1 201 -5
198 -13 -6 -13 33 -60 49 -60 16 0 21 -33 8 -48 -13 -16 0 -37 25 -41 22 -4
21 -34 -1 -51 -8 -5 -16 -23 -18 -39 -2 -17 -10 -32 -17 -34 -9 -3 -11 1 -7
12 4 9 3 15 -2 11 -5 -3 -11 0 -13 7 -3 7 -7 2 -10 -10 -4 -15 -2 -20 5 -15 7
3 4 -3 -7 -15 -16 -18 -17 -24 -5 -38 11 -14 10 -15 -5 -12 -12 2 -21 -5 -27
-19 -5 -14 -5 -23 1 -23 6 0 10 -7 10 -15 0 -8 6 -15 13 -15 7 -1 5 -6 -5 -14
-10 -7 -18 -19 -18 -27 0 -10 -3 -10 -11 -2 -15 15 -40 -8 -42 -38 l-1 -21
-18 22 -17 21 -21 -21 c-11 -11 -20 -27 -20 -35 0 -8 -4 -15 -9 -15 -5 0 -16
-3 -25 -6 -9 -3 -16 -1 -16 6 0 6 5 8 10 5 6 -3 10 -2 10 4 0 5 3 17 6 26 4 9
3 15 -2 14 -26 -4 -32 3 -27 33 4 29 4 30 -12 15 -14 -15 -47 -23 -58 -14 -2
1 -12 -5 -22 -13 -17 -13 -18 -13 -10 0 8 13 7 13 -8 1 -9 -7 -17 -22 -17 -32
0 -10 -4 -21 -10 -24 -6 -4 -7 1 -3 11 5 14 3 15 -15 5 -30 -16 -50 -14 -54 7
-3 14 -9 12 -36 -15 -30 -30 -40 -27 -33 11 1 5 -5 6 -13 3 -18 -7 -28 17 -13
32 6 6 7 11 3 11 -5 0 -3 7 4 15 7 9 10 18 6 22 -3 3 -16 -6 -28 -20 -20 -22
-30 -26 -70 -23 -38 2 -48 -1 -49 -13 0 -14 -1 -14 -7 0 -4 9 -17 15 -29 14
-13 -1 -23 3 -23 8 0 5 9 7 20 4 13 -3 20 0 20 9 0 8 -6 11 -15 8 -20 -8 -19
1 1 21 13 12 14 19 5 28 -7 7 -11 8 -11 0 0 -15 -36 -23 -49 -10 -7 7 -7 14 0
24 9 10 6 13 -12 13 -17 0 -20 3 -11 9 11 6 10 11 -3 25 -9 9 -13 16 -9 16 3
0 1 6 -6 14 -6 8 -19 12 -27 9 -10 -4 -14 -2 -9 5 3 6 3 13 -2 15 -4 3 -7 21
-6 41 1 20 -2 39 -7 42 -5 3 -9 13 -9 23 0 11 -12 24 -30 31 -30 13 -40 30
-17 30 8 0 7 4 -3 10 -10 6 -11 10 -2 10 6 0 12 7 12 15 0 8 -4 15 -8 15 -8 0
-6 49 3 78 8 23 34 12 44 -20z m1175 -84 c3 -8 2 -12 -4 -9 -6 3 -10 10 -10
16 0 14 7 11 14 -7z m396 -33 c1 -3 3 -33 5 -65 3 -33 1 -75 -4 -93 -5 -18 -6
-33 -2 -33 5 0 7 -30 7 -67 -1 -45 3 -73 12 -82 7 -7 11 -19 9 -26 -3 -6 1
-12 9 -12 7 0 16 8 19 18 5 14 33 35 36 26 0 -1 3 -40 6 -86 3 -62 1 -86 -8
-92 -9 -5 -10 -11 -2 -21 8 -10 8 -18 -1 -30 -7 -10 -16 -15 -19 -12 -3 3 -4
-6 -3 -20 2 -14 -3 -31 -10 -37 -8 -6 -14 -29 -14 -50 0 -44 -19 -91 -32 -82
-6 3 -5 -5 2 -17 8 -15 8 -20 1 -16 -7 5 -11 -2 -11 -17 0 -13 -13 -41 -30
-62 -16 -21 -30 -44 -30 -52 0 -7 -13 -21 -30 -32 -16 -10 -28 -20 -25 -23 3
-3 -1 -11 -10 -18 -8 -7 -15 -19 -15 -26 0 -8 -6 -14 -14 -14 -8 0 -28 -16
-45 -35 -16 -19 -36 -36 -43 -37 -7 -2 -32 -22 -56 -46 -23 -23 -49 -42 -56
-42 -8 0 -26 -14 -40 -31 -23 -27 -37 -35 -68 -38 -3 -1 -19 -12 -35 -25 -25
-20 -55 -32 -103 -39 -8 -1 -22 -10 -30 -20 -8 -10 -31 -20 -50 -23 -19 -3
-39 -10 -45 -14 -23 -19 -248 -32 -274 -16 -7 5 -18 3 -23 -2 -7 -7 -18 -8
-27 -3 -9 5 -38 11 -65 15 -129 16 -333 120 -310 157 3 6 1 15 -6 19 -26 16
-25 170 1 170 6 0 35 -27 66 -60 31 -33 62 -60 69 -60 17 0 26 47 13 71 -6 12
-7 25 -2 30 10 10 53 0 53 -13 0 -5 9 -4 20 2 11 6 18 15 15 20 -3 5 3 11 14
15 29 9 63 66 49 82 -7 9 -7 13 1 13 21 0 11 18 -13 24 -23 6 -42 33 -31 44 2
3 25 -3 50 -12 24 -10 50 -14 56 -10 7 4 34 9 60 11 49 4 111 24 110 36 -3 29
1 35 20 30 15 -4 22 0 26 17 4 16 8 18 14 8 7 -10 9 -10 9 0 0 6 8 13 18 13 9
1 -8 5 -38 9 -35 4 -58 3 -62 -4 -5 -7 -8 -7 -8 2 0 6 -7 12 -15 12 -8 0 -15
-8 -15 -19 0 -21 -30 -24 -43 -3 -5 8 -17 10 -30 6 l-22 -6 22 21 c12 11 29
21 37 21 8 0 17 4 20 9 3 5 25 12 48 15 24 4 48 7 53 8 6 1 19 10 29 20 11 10
23 18 28 18 4 0 8 9 8 21 0 11 7 27 15 35 8 9 15 11 15 5 0 -20 17 -11 28 14
7 15 20 25 32 25 12 0 18 5 15 10 -3 6 1 10 10 10 8 0 18 7 21 15 4 8 17 15
31 15 21 0 23 3 14 14 -10 12 -8 17 8 25 26 15 29 14 34 -6 3 -14 6 -12 15 10
6 15 17 26 24 25 7 -2 12 5 10 15 -2 9 1 17 5 17 5 0 23 14 41 30 18 17 38 30
44 30 6 0 19 7 29 16 19 17 49 13 49 -7 0 -6 -9 -9 -20 -6 -11 3 -18 1 -14 -4
9 -15 54 -10 54 5 0 8 5 18 12 22 7 5 8 3 3 -6 -4 -7 -2 -16 6 -21 12 -8 12
-11 -1 -19 -12 -8 -11 -10 8 -10 13 0 20 4 17 10 -11 18 5 32 21 19 8 -6 17
-9 20 -6 11 11 11 42 0 49 -6 4 2 12 21 19 18 6 31 14 28 19 -6 9 19 32 27 25
3 -3 11 1 18 10 9 11 9 15 1 15 -8 0 -7 6 3 16 9 8 16 22 16 30 0 9 5 12 11 8
7 -4 10 -1 7 7 -3 8 -11 13 -17 11 -7 -1 -10 2 -6 8 3 5 12 10 18 10 17 0 43
43 29 48 -12 4 62 82 78 82 7 0 7 6 0 20 -9 16 -8 18 5 14 8 -4 15 -9 15 -13z
m-600 -26 c0 -8 -4 -15 -10 -15 -5 0 -10 7 -10 15 0 8 5 15 10 15 6 0 10 -7
10 -15z m30 -15 c0 -5 -5 -10 -11 -10 -5 0 -7 5 -4 10 3 6 8 10 11 10 2 0 4
-4 4 -10z m830 -15 c174 -2 170 -1 170 -19 0 -10 -16 -17 -47 -21 -27 -4 -66
-11 -88 -17 -22 -5 -46 -10 -52 -10 -7 -1 -13 -5 -13 -9 0 -4 6 -10 13 -13 22
-11 -41 4 -70 16 -15 6 -30 12 -33 13 -64 16 -109 44 -110 68 0 5 19 5 43 1
23 -4 107 -9 187 -9z m-656 -10 c-4 -8 -11 -15 -16 -15 -6 0 -5 6 2 15 7 8 14
15 16 15 2 0 1 -7 -2 -15z m-208 -56 c4 -8 -1 -9 -16 -4 -15 5 -20 4 -16 -4 4
-6 3 -11 -3 -11 -16 0 -22 18 -9 23 22 9 37 7 44 -4z m165 -42 c-7 -7 -14 -8
-21 -1 -6 6 -2 10 12 11 16 2 18 -1 9 -10z m-241 -47 c0 -5 -4 -10 -10 -10 -5
0 -10 5 -10 10 0 6 5 10 10 10 6 0 10 -4 10 -10z m196 -22 c4 -6 3 -8 -4 -4
-5 3 -12 1 -14 -6 -3 -8 -7 -6 -11 5 -7 20 17 24 29 5z m154 -93 c-7 -8 -17
-15 -23 -15 -6 0 -2 7 9 15 25 19 30 19 14 0z m-647 -56 c-8 -16 -17 -28 -20
-25 -6 5 23 56 31 56 3 0 -2 -14 -11 -31z m307 -159 c0 -5 -7 -10 -16 -10 -8
0 -12 5 -9 10 3 6 10 10 16 10 5 0 9 -4 9 -10z m-372 -204 c-10 -7 -15 -16
-11 -19 3 -4 -1 -7 -11 -7 -9 0 -14 5 -11 10 3 6 0 11 -7 11 -7 1 1 5 17 9 42
11 42 11 23 -4z m167 -56 c-3 -5 -12 -10 -18 -10 -7 0 -6 4 3 10 19 12 23 12
15 0z m-649 -77 c-10 -10 -19 5 -10 18 6 11 8 11 12 0 2 -7 1 -15 -2 -18z
m604 23 c0 -2 -7 -6 -15 -10 -8 -3 -15 -1 -15 4 0 6 7 10 15 10 8 0 15 -2 15
-4z m-600 -76 c-19 -12 -35 3 -26 26 6 17 8 17 24 0 15 -15 15 -18 2 -26z
m2870 -25 c0 -8 -4 -15 -8 -15 -5 0 -9 7 -9 15 0 8 4 15 9 15 4 0 8 -7 8 -15z
m-2870 -59 c0 -15 -18 -31 -26 -23 -7 7 7 37 17 37 5 0 9 -6 9 -14z m2357 -58
c-3 -8 -6 -5 -6 6 -1 11 2 17 5 13 3 -3 4 -12 1 -19z m493 18 c0 -3 -4 -8 -10
-11 -5 -3 -10 -1 -10 4 0 6 5 11 10 11 6 0 10 -2 10 -4z m-2836 -177 c12 -30
14 -45 6 -54 -8 -9 -8 -15 0 -20 5 -3 10 -1 10 5 0 27 23 1 26 -29 6 -48 -23
-38 -64 23 -27 41 -30 51 -20 64 11 13 10 15 -4 9 -14 -5 -18 -1 -17 16 0 12
3 16 6 10 2 -7 11 -13 19 -13 8 0 11 6 8 15 -4 8 -2 15 4 15 5 0 17 -18 26
-41z m2446 21 c0 -5 -5 -10 -11 -10 -5 0 -7 5 -4 10 3 6 8 10 11 10 2 0 4 -4
4 -10z m264 -39 c3 -5 -1 -11 -9 -15 -9 -3 -15 0 -15 9 0 16 16 20 24 6z
m-792 -23 c-7 -7 -12 -8 -12 -2 0 14 12 26 19 19 2 -3 -1 -11 -7 -17z m65 0
c-3 -8 -6 -5 -6 6 -1 11 2 17 5 13 3 -3 4 -12 1 -19z m873 12 c0 -5 -7 -10
-16 -10 -8 0 -12 5 -9 10 3 6 10 10 16 10 5 0 9 -4 9 -10z m-1010 -104 c-4 -4
-16 -4 -26 2 -16 9 -14 10 8 9 15 -1 23 -6 18 -11z m640 -20 c0 -2 -7 -7 -16
-10 -8 -3 -12 -2 -9 4 6 10 25 14 25 6z m-222 -51 c-3 -3 -9 2 -12 12 -6 14
-5 15 5 6 7 -7 10 -15 7 -18z m-518 -62 c0 -1 -5 -5 -12 -9 -7 -4 -8 -3 -4 4
6 11 -5 16 -26 13 -4 0 -5 6 -2 13 5 12 9 12 25 -2 10 -9 19 -17 19 -19z m544
-4 c-3 -5 -10 -7 -15 -3 -5 3 -7 10 -3 15 3 5 10 7 15 3 5 -3 7 -10 3 -15z
m676 0 c0 -5 -4 -9 -8 -9 -5 0 -9 7 -9 15 0 8 4 12 9 9 4 -3 8 -9 8 -15z
m-1978 -181 c-7 -7 -12 -8 -12 -2 0 14 12 26 19 19 2 -3 -1 -11 -7 -17z m503
2 c-3 -5 -11 -10 -16 -10 -6 0 -7 5 -4 10 3 6 11 10 16 10 6 0 7 -4 4 -10z
m255 1 c0 -5 -7 -11 -15 -15 -15 -5 -20 5 -8 17 9 10 23 9 23 -2z m323 -11
c-3 -11 -10 -23 -16 -27 -5 -3 -8 -2 -5 3 3 5 8 17 11 27 9 24 16 22 10 -3z
m644 -7 c-9 -9 -20 -13 -24 -9 -4 4 -1 11 7 16 25 16 35 11 17 -7z m-1140 -18
c-7 -13 -14 -20 -15 -14 -2 5 2 16 8 24 18 21 20 18 7 -10z m1224 2 c-10 -9
-11 -8 -5 6 3 10 9 15 12 12 3 -3 0 -11 -7 -18z m-1327 1 c-3 -4 -9 -8 -15 -8
-5 0 -9 4 -9 8 0 5 7 9 15 9 8 0 12 -4 9 -9z m181 2 c-3 -5 -12 -10 -18 -10
-7 0 -6 4 3 10 19 12 23 12 15 0z m162 -11 c-9 -6 -15 -14 -12 -19 3 -5 2 -11
-3 -14 -4 -2 -9 7 -10 20 -1 14 2 23 7 19 5 -3 13 0 16 6 4 5 10 7 13 4 4 -4
-1 -11 -11 -16z m343 12 c0 -5 -7 -11 -14 -14 -10 -4 -13 -1 -9 9 6 15 23 19
23 5z m-627 -25 c4 -10 1 -13 -8 -9 -8 3 -12 9 -9 14 7 12 11 11 17 -5z m194
-8 c-3 -8 -6 -5 -6 6 -1 11 2 17 5 13 3 -3 4 -12 1 -19z m-247 2 c0 -5 -5 -10
-11 -10 -5 0 -7 5 -4 10 3 6 8 10 11 10 2 0 4 -4 4 -10z m290 0 c0 -5 -5 -10
-11 -10 -5 0 -7 5 -4 10 3 6 8 10 11 10 2 0 4 -4 4 -10z m1030 1 c0 -5 -7 -12
-16 -15 -14 -5 -15 -4 -4 9 14 17 20 19 20 6z m157 -13 c-3 -8 -6 -5 -6 6 -1
11 2 17 5 13 3 -3 4 -12 1 -19z m-977 2 c0 -5 -5 -10 -11 -10 -5 0 -7 5 -4 10
3 6 8 10 11 10 2 0 4 -4 4 -10z m905 -9 c-3 -6 -11 -8 -17 -5 -6 4 -5 9 3 15
16 10 23 4 14 -10z m-655 5 c0 -3 -4 -8 -10 -11 -5 -3 -10 -1 -10 4 0 6 5 11
10 11 6 0 10 -2 10 -4z m706 -52 c-19 -18 -21 -11 -4 19 7 14 13 17 15 10 3
-7 -3 -20 -11 -29z m24 -9 c-7 -9 -15 -13 -17 -11 -7 7 7 26 19 26 6 0 6 -6
-2 -15z"/>
<path d="M2905 3289 c-11 -4 -39 -8 -63 -8 -26 -1 -41 -5 -37 -11 3 -5 -3 -10
-13 -10 -26 0 -37 -17 -41 -60 -3 -35 -3 -35 18 -16 12 11 21 14 21 8 0 -7 16
-12 40 -12 48 0 51 -11 8 -28 -25 -9 -29 -15 -20 -24 9 -9 24 -7 67 7 53 18
72 35 39 35 -14 0 -14 2 0 15 17 17 156 22 156 5 0 -5 18 -10 39 -10 22 0 43
5 46 10 3 6 -1 10 -9 10 -16 0 -39 33 -30 43 3 3 -5 3 -18 0 -16 -3 -19 -2
-10 5 11 8 11 10 -1 15 -8 3 -19 1 -25 -5 -11 -11 -55 -1 -47 12 12 19 -82 34
-120 19z"/>
<path d="M3050 3270 c0 -5 5 -10 11 -10 5 0 7 5 4 10 -3 6 -8 10 -11 10 -2 0
-4 -4 -4 -10z"/>
<path d="M2895 3094 c-57 -24 -107 -64 -101 -80 3 -7 1 -16 -5 -20 -7 -4 -7
-10 0 -18 7 -8 4 -15 -9 -24 -11 -6 -24 -20 -29 -31 -10 -18 -9 -18 32 -4 23
8 61 23 84 33 24 11 47 20 53 20 5 0 14 -17 20 -39 13 -51 33 -65 82 -62 53 3
76 16 84 46 7 29 12 30 43 8 22 -15 22 -17 7 -28 -15 -12 -15 -13 2 -17 10 -3
29 -1 42 5 14 5 37 9 53 8 51 -4 27 16 -73 63 -86 40 -113 47 -193 54 -73 7
-95 6 -106 -6 -11 -11 -15 -11 -22 0 -7 10 -9 10 -9 -2 0 -10 -3 -11 -8 -4 -4
6 -14 14 -22 17 -10 3 -6 6 10 7 14 1 19 4 12 7 -19 7 45 49 98 63 53 14 148
5 182 -18 14 -9 50 -34 79 -54 67 -47 83 -49 40 -4 -76 79 -251 119 -346 80z"/>
<path d="M2872 2830 c2 -8 26 -23 52 -33 26 -9 45 -13 42 -8 -4 5 -20 12 -36
16 -17 4 -38 14 -47 23 -13 13 -15 14 -11 2z"/>
<path d="M2063 2783 c9 -2 23 -2 30 0 6 3 -1 5 -18 5 -16 0 -22 -2 -12 -5z"/>
<path d="M2205 2653 c-31 -34 -34 -59 -6 -44 16 9 48 71 36 71 -2 0 -16 -12
-30 -27z"/>
<path d="M2533 2373 c-42 -8 -24 -23 21 -17 39 6 45 4 51 -15 7 -24 14 -25 67
-9 l39 11 -38 15 c-41 16 -105 23 -140 15z"/>
<path d="M3309 2035 c-1 -5 -1 -13 0 -17 0 -5 -3 -8 -9 -8 -5 0 -10 -4 -10
-10 0 -5 11 -10 25 -10 14 0 25 4 25 8 0 13 -29 48 -31 37z"/>
<path d="M3295 1941 c-3 -5 0 -13 6 -16 5 -4 8 -13 5 -21 -4 -12 -2 -12 14 -4
17 9 18 14 7 30 -13 22 -23 25 -32 11z"/>
<path d="M1988 3063 c7 -3 16 -2 19 1 4 3 -2 6 -13 5 -11 0 -14 -3 -6 -6z"/>
<path d="M3956 2943 c-12 -12 -6 -33 9 -33 8 0 15 6 15 14 0 17 -14 28 -24 19z"/>
<path d="M3204 1408 c3 -10 1 -18 -3 -18 -5 0 -7 -9 -4 -20 4 -14 -1 -23 -18
-30 -23 -10 -22 -10 5 -5 52 11 101 55 60 55 -9 0 -12 5 -8 12 5 7 3 8 -6 3
-7 -4 -16 -2 -22 6 -8 11 -9 10 -4 -3z"/>
<path d="M2931 1241 c-8 -5 -9 -11 -3 -15 5 -3 12 1 16 9 6 17 6 18 -13 6z"/>
</g>
</svg>
